<svg width="469" height="503" viewBox="0 0 469 503" fill="none" xmlns="http://www.w3.org/2000/svg">
<path d="M206.99 125.253C251.225 64.213 346.232 57.8358 377.09 129.049C407.948 200.262 450.055 332.97 420.261 373.511C390.467 414.204 322.974 336.766 252.593 369.108C182.06 401.45 32.6332 362.579 31.8732 278.004C31.2651 193.277 152.266 200.717 206.99 125.253Z" fill="#FF2D23"/>
<path d="M94.7673 149.07L31.3971 166.581C30.0941 166.935 28.6728 166.226 28.3174 164.806L3.32467 74.8858C2.96932 73.5843 3.68002 72.1645 5.1014 71.8095L68.4716 54.4171C69.7746 54.0622 71.1959 54.7721 71.5513 56.1919L96.544 146.112C96.7809 147.413 96.0702 148.715 94.7673 149.07Z" fill="#2C2E3E" stroke="white" stroke-width="0.5" stroke-miterlimit="10"/>
<path d="M93.5828 154.631L28.4359 163.86C27.1329 164.096 25.83 163.15 25.5931 161.73L12.5637 69.3252C12.3268 68.0237 13.2744 66.7222 14.6958 66.4856L79.8427 57.2569C81.1457 57.0203 82.4486 57.9668 82.6855 59.3866L95.7149 151.791C95.9518 153.093 95.0042 154.394 93.5828 154.631Z" fill="#2C2E3E" stroke="white" stroke-width="0.5" stroke-miterlimit="10"/>
<path d="M91.3323 158.417L26.4222 169.302C25.1193 169.538 23.8164 168.592 23.5795 167.29L8.06266 75.2405C7.82576 73.939 8.77335 72.6375 10.0763 72.4009L74.9863 61.5159C76.2893 61.2792 77.5922 62.2258 77.8291 63.5272L93.3459 155.577C93.5828 156.878 92.6352 158.18 91.3323 158.417Z" fill="#2C2E3E" stroke="white" stroke-width="0.5" stroke-miterlimit="10"/>
<path d="M90.3847 163.15L26.5407 178.767C25.2377 179.122 23.9348 178.294 23.5795 176.993L1.31105 86.2445C0.955699 84.943 1.78484 83.6415 3.08778 83.2866L66.9318 67.6689C68.2347 67.3139 69.5377 68.1421 69.893 69.4436L92.1614 160.074C92.5168 161.493 91.6876 162.795 90.3847 163.15Z" fill="#2C2E3E" stroke="white" stroke-width="0.5" stroke-miterlimit="10"/>
<path d="M29.6204 120.556L23.1057 122.094C22.395 122.33 21.5658 121.857 21.329 121.029L16.8279 102.572C16.591 101.862 17.0648 101.033 17.8939 100.797L24.4086 99.2587C25.1193 99.022 25.9485 99.4953 26.1854 100.324L30.6864 118.781C30.9233 119.609 30.4495 120.319 29.6204 120.556Z" fill="#2C2E3E" stroke="white" stroke-width="0.5" stroke-miterlimit="10"/>
<path d="M42.6498 117.361L36.1351 118.899C35.4244 119.136 34.5952 118.663 34.3583 117.834L28.3174 93.343C28.0805 92.6331 28.5543 91.8049 29.3835 91.5683L35.8982 90.0302C36.6089 89.7935 37.438 90.2668 37.6749 91.095L43.7158 115.586C43.8343 116.415 43.3605 117.124 42.6498 117.361Z" fill="#2C2E3E" stroke="white" stroke-width="0.5" stroke-miterlimit="10"/>
<path d="M55.2054 114.285L48.6907 115.823C47.98 116.06 47.1508 115.586 47.0324 114.876L45.8479 110.144C45.611 109.434 46.0848 108.606 46.9139 108.369L53.4286 106.831C54.1393 106.594 54.9685 107.068 55.2054 107.896L56.3899 112.628C56.5083 113.338 56.0345 114.048 55.2054 114.285Z" fill="#2C2E3E" stroke="white" stroke-width="0.5" stroke-miterlimit="10"/>
<path d="M67.9979 111.209L61.4832 112.747C60.7725 112.983 59.9433 112.51 59.7064 111.682L56.0345 96.8923C55.7976 96.1824 56.2714 95.3542 57.1006 95.1176L63.7337 93.5795C64.4444 93.3428 65.2735 93.8161 65.5104 94.6443L69.1824 109.434C69.3008 110.144 68.827 110.972 67.9979 111.209Z" fill="#2C2E3E" stroke="white" stroke-width="0.5" stroke-miterlimit="10"/>
<path d="M18.723 123.159L71.5513 110.262" stroke="white" stroke-width="0.5" stroke-miterlimit="10"/>
<path d="M18.723 123.158L10.787 90.6216" stroke="white" stroke-width="0.5" stroke-miterlimit="10"/>
<path d="M21.5658 134.517L42.1759 129.548" stroke="white" stroke-width="0.5" stroke-miterlimit="10"/>
<path d="M45.7295 128.601L74.2757 121.62" stroke="white" stroke-width="0.5" stroke-miterlimit="10"/>
<path d="M23.461 142.089L32.1078 140.078" stroke="white" stroke-width="0.5" stroke-miterlimit="10"/>
<path d="M61.8385 132.742L76.1708 129.311" stroke="white" stroke-width="0.5" stroke-miterlimit="10"/>
<path d="M35.069 139.368L58.5219 133.57" stroke="white" stroke-width="0.5" stroke-miterlimit="10"/>
<path d="M25.2377 149.779L78.066 136.883" stroke="white" stroke-width="0.5" stroke-miterlimit="10"/>
<path d="M27.1329 157.352L43.1235 153.448" stroke="white" stroke-width="0.5" stroke-miterlimit="10"/>
<path d="M45.4925 152.856L67.0502 147.65" stroke="white" stroke-width="0.5" stroke-miterlimit="10"/>
<path d="M29.0281 164.924L68.9455 155.222" stroke="white" stroke-width="0.5" stroke-miterlimit="10"/>
<path d="M199.239 459.058C199.239 459.058 203.385 475.149 209.071 481.656C214.756 488.163 224.943 493.133 229.918 487.927C234.892 482.721 226.246 457.046 224.232 451.13C221.271 442.73 212.15 420.25 212.15 420.25L202.319 429.715L201.134 443.558L199.239 459.058Z" fill="#2C2E3E"/>
<path d="M202.674 446.398C202.674 446.398 212.624 471.954 218.428 472.9C230.865 474.912 221.745 451.367 221.745 451.367L211.084 417.41L204.333 424.154L202.2 440.127L202.674 446.398Z" fill="#2C2E3E" stroke="white" stroke-width="0.5" stroke-miterlimit="10"/>
<path d="M185.025 437.405C185.025 437.405 171.522 474.793 169.627 485.323C167.732 495.853 168.206 501.414 174.839 502.715C181.472 504.017 194.857 495.143 197.226 482.957C199.595 470.77 204.333 433.737 204.333 433.737L185.025 437.405Z" fill="#2C2E3E"/>
<path d="M186.684 431.016C186.684 431.016 178.274 463.198 176.497 471.362C174.483 479.999 175.313 485.915 181.946 485.915C187.75 485.915 195.33 477.988 197.226 465.565C199.121 453.141 200.424 443.203 202.319 434.684C202.201 434.684 199.358 427.112 186.684 431.016Z" fill="#2C2E3E" stroke="white" stroke-width="0.5" stroke-miterlimit="10"/>
<path d="M169.627 284.896C169.627 284.896 174.01 302.17 175.905 309.979C177.8 317.669 179.103 340.15 178.511 348.195C177.918 356.24 190 403.803 190 403.803L185.144 429.596C185.144 429.596 191.54 437.169 204.333 433.974C204.333 433.974 209.663 422.261 212.624 415.872C215.585 409.483 235.958 367.599 237.854 350.916C239.749 334.115 239.157 319.444 239.986 316.841C240.696 314.238 249.935 285.014 249.935 285.014H169.627V284.896Z" fill="white" stroke="#2C2E3E" stroke-width="0.5" stroke-miterlimit="10"/>
<path d="M208.478 285.843C208.478 285.843 206.228 309.624 205.636 321.101C205.043 332.578 190 403.804 190 403.804" stroke="#2C2E3E" stroke-width="0.5" stroke-miterlimit="10"/>
<path d="M272.204 258.629C272.204 258.629 275.284 259.339 276.468 262.179L295.657 304.654C295.657 304.654 298.144 310.807 291.037 310.807H124.617C124.617 310.807 118.931 310.688 121.3 303.826L139.66 262.297C139.66 262.297 140.962 258.629 146.056 258.629" fill="white"/>
<path d="M272.204 258.629C272.204 258.629 275.284 259.339 276.468 262.179L295.657 304.654C295.657 304.654 298.144 310.807 291.037 310.807H124.617C124.617 310.807 118.931 310.688 121.3 303.826L139.66 262.297C139.66 262.297 140.962 258.629 146.056 258.629" stroke="#2C2E3E" stroke-width="0.5" stroke-miterlimit="10"/>
<path d="M146.174 182.671H272.322C274.691 182.671 276.587 184.564 276.587 186.93V254.252C276.587 256.618 274.691 258.511 272.322 258.511H146.174C143.805 258.511 141.91 256.618 141.91 254.252V186.93C141.91 184.564 143.805 182.671 146.174 182.671Z" fill="white" stroke="#2C2E3E" stroke-width="0.5" stroke-miterlimit="10"/>
<path d="M264.031 244.432H266.874C267.466 244.432 268.058 244.905 268.058 245.615V248.454C268.058 249.046 267.584 249.638 266.874 249.638H264.031C263.439 249.638 262.846 249.164 262.846 248.454V245.615C262.965 244.905 263.439 244.432 264.031 244.432Z" fill="white" stroke="#2C2E3E" stroke-width="0.5" stroke-miterlimit="10"/>
<path d="M256.924 244.432H259.767C260.359 244.432 260.951 244.905 260.951 245.615V248.454C260.951 249.046 260.477 249.638 259.767 249.638H256.924C256.332 249.638 255.74 249.164 255.74 248.454V245.615C255.74 244.905 256.213 244.432 256.924 244.432Z" fill="white" stroke="#2C2E3E" stroke-width="0.5" stroke-miterlimit="10"/>
<path d="M249.699 244.432H252.541C253.134 244.432 253.726 244.905 253.726 245.615V248.454C253.726 249.046 253.252 249.638 252.541 249.638H249.699C249.106 249.638 248.514 249.164 248.514 248.454V245.615C248.633 244.905 249.106 244.432 249.699 244.432Z" fill="white" stroke="#2C2E3E" stroke-width="0.5" stroke-miterlimit="10"/>
<path d="M242.592 244.432H245.434C246.027 244.432 246.619 244.905 246.619 245.615V248.454C246.619 249.046 246.145 249.638 245.434 249.638H242.592C241.999 249.638 241.407 249.164 241.407 248.454V245.615C241.407 244.905 241.999 244.432 242.592 244.432Z" fill="white" stroke="#2C2E3E" stroke-width="0.5" stroke-miterlimit="10"/>
<path d="M235.485 244.432H238.327C238.92 244.432 239.512 244.905 239.512 245.615V248.454C239.512 249.046 239.038 249.638 238.327 249.638H235.485C234.892 249.638 234.3 249.164 234.3 248.454V245.615C234.3 244.905 234.774 244.432 235.485 244.432Z" fill="white" stroke="#2C2E3E" stroke-width="0.5" stroke-miterlimit="10"/>
<path d="M228.259 244.432H231.102C231.694 244.432 232.287 244.905 232.287 245.615V248.454C232.287 249.046 231.813 249.638 231.102 249.638H228.259C227.667 249.638 227.075 249.164 227.075 248.454V245.615C227.075 244.905 227.667 244.432 228.259 244.432Z" fill="white" stroke="#2C2E3E" stroke-width="0.5" stroke-miterlimit="10"/>
<path d="M221.152 244.432H223.995C224.587 244.432 225.18 244.905 225.18 245.615V248.454C225.18 249.046 224.706 249.638 223.995 249.638H221.152C220.56 249.638 219.968 249.164 219.968 248.454V245.615C219.968 244.905 220.442 244.432 221.152 244.432Z" fill="white" stroke="#2C2E3E" stroke-width="0.5" stroke-miterlimit="10"/>
<path d="M213.927 244.432H216.77C217.362 244.432 217.954 244.905 217.954 245.615V248.454C217.954 249.046 217.48 249.638 216.77 249.638H213.927C213.335 249.638 212.743 249.164 212.743 248.454V245.615C212.861 244.905 213.335 244.432 213.927 244.432Z" fill="white" stroke="#2C2E3E" stroke-width="0.5" stroke-miterlimit="10"/>
<path d="M206.82 244.432H209.663C210.255 244.432 210.847 244.905 210.847 245.615V248.454C210.847 249.046 210.374 249.638 209.663 249.638H206.82C206.228 249.638 205.636 249.164 205.636 248.454V245.615C205.636 244.905 206.228 244.432 206.82 244.432Z" fill="white" stroke="#2C2E3E" stroke-width="0.5" stroke-miterlimit="10"/>
<path d="M199.713 244.432H202.556C203.148 244.432 203.74 244.905 203.74 245.615V248.454C203.74 249.046 203.267 249.638 202.556 249.638H199.713C199.121 249.638 198.529 249.164 198.529 248.454V245.615C198.529 244.905 199.002 244.432 199.713 244.432Z" fill="white" stroke="#2C2E3E" stroke-width="0.5" stroke-miterlimit="10"/>
<path d="M254.91 237.451H257.753C258.345 237.451 258.938 237.924 258.938 238.634V241.474C258.938 242.065 258.464 242.657 257.753 242.657H254.91C254.318 242.657 253.726 242.184 253.726 241.474V238.634C253.726 238.043 254.2 237.451 254.91 237.451Z" fill="white" stroke="#2C2E3E" stroke-width="0.5" stroke-miterlimit="10"/>
<path d="M261.425 237.451H266.992C267.584 237.451 268.058 237.924 268.058 238.516V241.592C268.058 242.184 267.584 242.657 266.992 242.657H261.425C260.833 242.657 260.359 242.184 260.359 241.592V238.516C260.478 237.924 260.951 237.451 261.425 237.451Z" fill="white" stroke="#2C2E3E" stroke-width="0.5" stroke-miterlimit="10"/>
<path d="M197.226 223.963H221.982C222.455 223.963 222.929 224.436 222.929 224.909V228.222C222.929 228.696 222.455 229.169 221.982 229.169H197.226C196.752 229.169 196.278 228.696 196.278 228.222V224.909C196.278 224.436 196.752 223.963 197.226 223.963Z" fill="white" stroke="#2C2E3E" stroke-width="0.5" stroke-miterlimit="10"/>
<path d="M196.16 197.697H222.337C223.64 197.697 224.587 198.762 224.587 199.945V215.089C224.587 216.391 223.521 217.337 222.337 217.337H196.16C194.857 217.337 193.909 216.272 193.909 215.089V199.945C193.909 198.643 194.857 197.697 196.16 197.697Z" fill="white" stroke="#2C2E3E" stroke-width="0.5" stroke-miterlimit="10"/>
<path d="M247.685 237.451H250.528C251.12 237.451 251.712 237.924 251.712 238.634V241.474C251.712 242.065 251.238 242.657 250.528 242.657H247.685C247.093 242.657 246.501 242.184 246.501 241.474V238.634C246.501 238.043 247.093 237.451 247.685 237.451Z" fill="white" stroke="#2C2E3E" stroke-width="0.5" stroke-miterlimit="10"/>
<path d="M240.46 237.451H243.302C243.895 237.451 244.487 237.924 244.487 238.634V241.474C244.487 242.065 244.013 242.657 243.302 242.657H240.46C239.867 242.657 239.275 242.184 239.275 241.474V238.634C239.394 238.043 239.867 237.451 240.46 237.451Z" fill="white" stroke="#2C2E3E" stroke-width="0.5" stroke-miterlimit="10"/>
<path d="M233.353 237.451H236.196C236.788 237.451 237.38 237.924 237.38 238.634V241.474C237.38 242.065 236.906 242.657 236.196 242.657H233.353C232.76 242.657 232.168 242.184 232.168 241.474V238.634C232.168 238.043 232.642 237.451 233.353 237.451Z" fill="white" stroke="#2C2E3E" stroke-width="0.5" stroke-miterlimit="10"/>
<path d="M226.127 237.451H228.97C229.562 237.451 230.155 237.924 230.155 238.634V241.474C230.155 242.065 229.681 242.657 228.97 242.657H226.127C225.535 242.657 224.943 242.184 224.943 241.474V238.634C225.061 238.043 225.535 237.451 226.127 237.451Z" fill="white" stroke="#2C2E3E" stroke-width="0.5" stroke-miterlimit="10"/>
<path d="M219.02 237.451H221.863C222.455 237.451 223.048 237.924 223.048 238.634V241.474C223.048 242.065 222.574 242.657 221.863 242.657H219.02C218.428 242.657 217.836 242.184 217.836 241.474V238.634C217.836 238.043 218.31 237.451 219.02 237.451Z" fill="white" stroke="#2C2E3E" stroke-width="0.5" stroke-miterlimit="10"/>
<path d="M211.795 237.451H214.638C215.23 237.451 215.822 237.924 215.822 238.634V241.474C215.822 242.065 215.348 242.657 214.638 242.657H211.795C211.203 242.657 210.611 242.184 210.611 241.474V238.634C210.611 238.043 211.203 237.451 211.795 237.451Z" fill="white" stroke="#2C2E3E" stroke-width="0.5" stroke-miterlimit="10"/>
<path d="M204.688 237.451H207.531C208.123 237.451 208.715 237.924 208.715 238.634V241.474C208.715 242.065 208.242 242.657 207.531 242.657H204.688C204.096 242.657 203.504 242.184 203.504 241.474V238.634C203.504 238.043 203.977 237.451 204.688 237.451Z" fill="white" stroke="#2C2E3E" stroke-width="0.5" stroke-miterlimit="10"/>
<path d="M197.463 237.451H200.305C200.898 237.451 201.49 237.924 201.49 238.634V241.474C201.49 242.065 201.016 242.657 200.305 242.657H197.463C196.87 242.657 196.278 242.184 196.278 241.474V238.634C196.278 238.043 196.87 237.451 197.463 237.451Z" fill="white" stroke="#2C2E3E" stroke-width="0.5" stroke-miterlimit="10"/>
<path d="M264.031 230.826H266.874C267.466 230.826 268.058 231.299 268.058 232.009V234.848C268.058 235.44 267.584 236.032 266.874 236.032H264.031C263.439 236.032 262.846 235.558 262.846 234.848V232.009C262.965 231.417 263.439 230.826 264.031 230.826Z" fill="white" stroke="#2C2E3E" stroke-width="0.5" stroke-miterlimit="10"/>
<path d="M256.924 230.826H259.767C260.359 230.826 260.951 231.299 260.951 232.009V234.848C260.951 235.44 260.477 236.032 259.767 236.032H256.924C256.332 236.032 255.74 235.558 255.74 234.848V232.009C255.74 231.417 256.213 230.826 256.924 230.826Z" fill="white" stroke="#2C2E3E" stroke-width="0.5" stroke-miterlimit="10"/>
<path d="M249.699 230.826H252.541C253.134 230.826 253.726 231.299 253.726 232.009V234.848C253.726 235.44 253.252 236.032 252.541 236.032H249.699C249.106 236.032 248.514 235.558 248.514 234.848V232.009C248.633 231.417 249.106 230.826 249.699 230.826Z" fill="white" stroke="#2C2E3E" stroke-width="0.5" stroke-miterlimit="10"/>
<path d="M242.592 230.826H245.434C246.027 230.826 246.619 231.299 246.619 232.009V234.848C246.619 235.44 246.145 236.032 245.434 236.032H242.592C241.999 236.032 241.407 235.558 241.407 234.848V232.009C241.407 231.417 241.999 230.826 242.592 230.826Z" fill="white" stroke="#2C2E3E" stroke-width="0.5" stroke-miterlimit="10"/>
<path d="M235.485 230.826H238.327C238.92 230.826 239.512 231.299 239.512 232.009V234.848C239.512 235.44 239.038 236.032 238.327 236.032H235.485C234.892 236.032 234.3 235.558 234.3 234.848V232.009C234.3 231.417 234.774 230.826 235.485 230.826Z" fill="white" stroke="#2C2E3E" stroke-width="0.5" stroke-miterlimit="10"/>
<path d="M228.259 230.826H231.102C231.694 230.826 232.287 231.299 232.287 232.009V234.848C232.287 235.44 231.813 236.032 231.102 236.032H228.259C227.667 236.032 227.075 235.558 227.075 234.848V232.009C227.075 231.417 227.667 230.826 228.259 230.826Z" fill="white" stroke="#2C2E3E" stroke-width="0.5" stroke-miterlimit="10"/>
<path d="M221.152 230.826H223.995C224.587 230.826 225.18 231.299 225.18 232.009V234.848C225.18 235.44 224.706 236.032 223.995 236.032H221.152C220.56 236.032 219.968 235.558 219.968 234.848V232.009C219.968 231.417 220.442 230.826 221.152 230.826Z" fill="white" stroke="#2C2E3E" stroke-width="0.5" stroke-miterlimit="10"/>
<path d="M213.927 230.826H216.77C217.362 230.826 217.954 231.299 217.954 232.009V234.848C217.954 235.44 217.48 236.032 216.77 236.032H213.927C213.335 236.032 212.743 235.558 212.743 234.848V232.009C212.861 231.417 213.335 230.826 213.927 230.826Z" fill="white" stroke="#2C2E3E" stroke-width="0.5" stroke-miterlimit="10"/>
<path d="M206.82 230.826H209.663C210.255 230.826 210.847 231.299 210.847 232.009V234.848C210.847 235.44 210.374 236.032 209.663 236.032H206.82C206.228 236.032 205.636 235.558 205.636 234.848V232.009C205.636 231.417 206.228 230.826 206.82 230.826Z" fill="white" stroke="#2C2E3E" stroke-width="0.5" stroke-miterlimit="10"/>
<path d="M199.713 230.826H202.556C203.148 230.826 203.74 231.299 203.74 232.009V234.848C203.74 235.44 203.267 236.032 202.556 236.032H199.713C199.121 236.032 198.529 235.558 198.529 234.848V232.009C198.529 231.417 199.002 230.826 199.713 230.826Z" fill="white" stroke="#2C2E3E" stroke-width="0.5" stroke-miterlimit="10"/>
<path d="M192.488 230.826H195.331C195.923 230.826 196.515 231.299 196.515 232.009V234.848C196.515 235.44 196.041 236.032 195.331 236.032H192.488C191.896 236.032 191.303 235.558 191.303 234.848V232.009C191.303 231.417 191.896 230.826 192.488 230.826Z" fill="white" stroke="#2C2E3E" stroke-width="0.5" stroke-miterlimit="10"/>
<path d="M190.237 223.963H193.08C193.672 223.963 194.265 224.436 194.265 225.146V227.986C194.265 228.577 193.791 229.169 193.08 229.169H190.237C189.645 229.169 189.053 228.696 189.053 227.986V225.146C189.171 224.554 189.645 223.963 190.237 223.963Z" fill="white" stroke="#2C2E3E" stroke-width="0.5" stroke-miterlimit="10"/>
<path d="M183.13 223.963H185.973C186.565 223.963 187.158 224.436 187.158 225.146V227.986C187.158 228.577 186.684 229.169 185.973 229.169H183.13C182.538 229.169 181.946 228.696 181.946 227.986V225.146C181.946 224.554 182.42 223.963 183.13 223.963Z" fill="white" stroke="#2C2E3E" stroke-width="0.5" stroke-miterlimit="10"/>
<path d="M175.905 223.963H178.748C179.34 223.963 179.932 224.436 179.932 225.146V227.986C179.932 228.577 179.458 229.169 178.748 229.169H175.905C175.313 229.169 174.72 228.696 174.72 227.986V225.146C174.72 224.554 175.313 223.963 175.905 223.963Z" fill="white" stroke="#2C2E3E" stroke-width="0.5" stroke-miterlimit="10"/>
<path d="M168.798 223.963H171.641C172.233 223.963 172.825 224.436 172.825 225.146V227.986C172.825 228.577 172.351 229.169 171.641 229.169H168.798C168.206 229.169 167.614 228.696 167.614 227.986V225.146C167.614 224.554 168.087 223.963 168.798 223.963Z" fill="white" stroke="#2C2E3E" stroke-width="0.5" stroke-miterlimit="10"/>
<path d="M247.093 223.963H249.936C250.528 223.963 251.12 224.436 251.12 225.146V227.986C251.12 228.577 250.646 229.169 249.936 229.169H247.093C246.501 229.169 245.908 228.696 245.908 227.986V225.146C246.027 224.554 246.501 223.963 247.093 223.963Z" fill="white" stroke="#2C2E3E" stroke-width="0.5" stroke-miterlimit="10"/>
<path d="M254.081 223.963H256.924C257.516 223.963 258.108 224.436 258.108 225.146V227.986C258.108 228.577 257.635 229.169 256.924 229.169H254.081C253.489 229.169 252.897 228.696 252.897 227.986V225.146C253.015 224.554 253.489 223.963 254.081 223.963Z" fill="white" stroke="#2C2E3E" stroke-width="0.5" stroke-miterlimit="10"/>
<path d="M261.07 223.963H266.874C267.466 223.963 268.058 224.436 268.058 225.146V227.986C268.058 228.577 267.584 229.169 266.874 229.169H261.07C260.477 229.169 259.885 228.696 259.885 227.986V225.146C260.004 224.554 260.477 223.963 261.07 223.963Z" fill="white" stroke="#2C2E3E" stroke-width="0.5" stroke-miterlimit="10"/>
<path d="M240.104 223.963H242.947C243.539 223.963 244.132 224.436 244.132 225.146V227.986C244.132 228.577 243.658 229.169 242.947 229.169H240.104C239.512 229.169 238.92 228.696 238.92 227.986V225.146C239.038 224.554 239.512 223.963 240.104 223.963Z" fill="white" stroke="#2C2E3E" stroke-width="0.5" stroke-miterlimit="10"/>
<path d="M233.116 223.963H235.959C236.551 223.963 237.143 224.436 237.143 225.146V227.986C237.143 228.577 236.669 229.169 235.959 229.169H233.116C232.524 229.169 231.931 228.696 231.931 227.986V225.146C232.05 224.554 232.524 223.963 233.116 223.963Z" fill="white" stroke="#2C2E3E" stroke-width="0.5" stroke-miterlimit="10"/>
<path d="M226.127 223.963H228.97C229.562 223.963 230.155 224.436 230.155 225.146V227.986C230.155 228.577 229.681 229.169 228.97 229.169H226.127C225.535 229.169 224.943 228.696 224.943 227.986V225.146C225.061 224.554 225.535 223.963 226.127 223.963Z" fill="white" stroke="#2C2E3E" stroke-width="0.5" stroke-miterlimit="10"/>
<path d="M161.573 223.963H164.415C165.008 223.963 165.6 224.436 165.6 225.146V227.986C165.6 228.577 165.126 229.169 164.415 229.169H161.573C160.98 229.169 160.388 228.696 160.388 227.986V225.146C160.388 224.554 160.98 223.963 161.573 223.963Z" fill="white" stroke="#2C2E3E" stroke-width="0.5" stroke-miterlimit="10"/>
<path d="M185.381 230.826H188.224C188.816 230.826 189.408 231.299 189.408 232.009V234.848C189.408 235.44 188.934 236.032 188.224 236.032H185.381C184.789 236.032 184.196 235.558 184.196 234.848V232.009C184.196 231.417 184.67 230.826 185.381 230.826Z" fill="white" stroke="#2C2E3E" stroke-width="0.5" stroke-miterlimit="10"/>
<path d="M178.155 230.826H180.998C181.59 230.826 182.183 231.299 182.183 232.009V234.848C182.183 235.44 181.709 236.032 180.998 236.032H178.155C177.563 236.032 176.971 235.558 176.971 234.848V232.009C177.089 231.417 177.563 230.826 178.155 230.826Z" fill="white" stroke="#2C2E3E" stroke-width="0.5" stroke-miterlimit="10"/>
<path d="M171.048 230.826H173.891C174.484 230.826 175.076 231.299 175.076 232.009V234.848C175.076 235.44 174.602 236.032 173.891 236.032H171.048C170.456 236.032 169.864 235.558 169.864 234.848V232.009C169.864 231.417 170.456 230.826 171.048 230.826Z" fill="white" stroke="#2C2E3E" stroke-width="0.5" stroke-miterlimit="10"/>
<path d="M163.942 230.826H166.784C167.377 230.826 167.969 231.299 167.969 232.009V234.848C167.969 235.44 167.495 236.032 166.784 236.032H163.942C163.349 236.032 162.757 235.558 162.757 234.848V232.009C162.757 231.417 163.231 230.826 163.942 230.826Z" fill="white" stroke="#2C2E3E" stroke-width="0.5" stroke-miterlimit="10"/>
<path d="M156.716 230.826H159.559C160.151 230.826 160.743 231.299 160.743 232.009V234.848C160.743 235.44 160.27 236.032 159.559 236.032H156.716C156.124 236.032 155.532 235.558 155.532 234.848V232.009C155.532 231.417 156.124 230.826 156.716 230.826Z" fill="white" stroke="#2C2E3E" stroke-width="0.5" stroke-miterlimit="10"/>
<path d="M149.609 237.569H157.545C158.138 237.569 158.73 238.043 158.73 238.752V241.592C158.73 242.184 158.256 242.775 157.545 242.775H149.609C149.017 242.775 148.425 242.302 148.425 241.592V238.752C148.425 238.161 148.899 237.569 149.609 237.569Z" fill="white" stroke="#2C2E3E" stroke-width="0.5" stroke-miterlimit="10"/>
<path d="M149.609 223.963H157.545C158.138 223.963 158.73 224.436 158.73 225.146V227.986C158.73 228.577 158.256 229.169 157.545 229.169H149.609C149.017 229.169 148.425 228.696 148.425 227.986V225.146C148.425 224.554 148.899 223.963 149.609 223.963Z" fill="white" stroke="#2C2E3E" stroke-width="0.5" stroke-miterlimit="10"/>
<path d="M149.609 230.826H152.452C153.044 230.826 153.636 231.299 153.636 232.009V234.848C153.636 235.44 153.163 236.032 152.452 236.032H149.609C149.017 236.032 148.425 235.558 148.425 234.848V232.009C148.425 231.417 148.899 230.826 149.609 230.826Z" fill="white" stroke="#2C2E3E" stroke-width="0.5" stroke-miterlimit="10"/>
<path d="M190.237 237.451H193.08C193.672 237.451 194.265 237.924 194.265 238.634V241.474C194.265 242.065 193.791 242.657 193.08 242.657H190.237C189.645 242.657 189.053 242.184 189.053 241.474V238.634C189.171 238.043 189.645 237.451 190.237 237.451Z" fill="white" stroke="#2C2E3E" stroke-width="0.5" stroke-miterlimit="10"/>
<path d="M183.13 237.451H185.973C186.565 237.451 187.158 237.924 187.158 238.634V241.474C187.158 242.065 186.684 242.657 185.973 242.657H183.13C182.538 242.657 181.946 242.184 181.946 241.474V238.634C181.946 238.043 182.42 237.451 183.13 237.451Z" fill="white" stroke="#2C2E3E" stroke-width="0.5" stroke-miterlimit="10"/>
<path d="M175.905 237.451H178.748C179.34 237.451 179.932 237.924 179.932 238.634V241.474C179.932 242.065 179.458 242.657 178.748 242.657H175.905C175.313 242.657 174.72 242.184 174.72 241.474V238.634C174.72 238.043 175.313 237.451 175.905 237.451Z" fill="white" stroke="#2C2E3E" stroke-width="0.5" stroke-miterlimit="10"/>
<path d="M168.798 237.451H171.641C172.233 237.451 172.825 237.924 172.825 238.634V241.474C172.825 242.065 172.351 242.657 171.641 242.657H168.798C168.206 242.657 167.614 242.184 167.614 241.474V238.634C167.614 238.043 168.087 237.451 168.798 237.451Z" fill="white" stroke="#2C2E3E" stroke-width="0.5" stroke-miterlimit="10"/>
<path d="M161.573 237.451H164.415C165.008 237.451 165.6 237.924 165.6 238.634V241.474C165.6 242.065 165.126 242.657 164.415 242.657H161.573C160.98 242.657 160.388 242.184 160.388 241.474V238.634C160.388 238.043 160.98 237.451 161.573 237.451Z" fill="white" stroke="#2C2E3E" stroke-width="0.5" stroke-miterlimit="10"/>
<path d="M192.488 244.432H195.331C195.923 244.432 196.515 244.905 196.515 245.615V248.454C196.515 249.046 196.041 249.638 195.331 249.638H192.488C191.896 249.638 191.303 249.164 191.303 248.454V245.615C191.303 244.905 191.896 244.432 192.488 244.432Z" fill="white" stroke="#2C2E3E" stroke-width="0.5" stroke-miterlimit="10"/>
<path d="M185.381 244.432H188.224C188.816 244.432 189.408 244.905 189.408 245.615V248.454C189.408 249.046 188.934 249.638 188.224 249.638H185.381C184.789 249.638 184.196 249.164 184.196 248.454V245.615C184.196 244.905 184.67 244.432 185.381 244.432Z" fill="white" stroke="#2C2E3E" stroke-width="0.5" stroke-miterlimit="10"/>
<path d="M178.155 244.432H180.998C181.59 244.432 182.183 244.905 182.183 245.615V248.454C182.183 249.046 181.709 249.638 180.998 249.638H178.155C177.563 249.638 176.971 249.164 176.971 248.454V245.615C177.089 244.905 177.563 244.432 178.155 244.432Z" fill="white" stroke="#2C2E3E" stroke-width="0.5" stroke-miterlimit="10"/>
<path d="M171.048 244.432H173.891C174.484 244.432 175.076 244.905 175.076 245.615V248.454C175.076 249.046 174.602 249.638 173.891 249.638H171.048C170.456 249.638 169.864 249.164 169.864 248.454V245.615C169.864 244.905 170.456 244.432 171.048 244.432Z" fill="white" stroke="#2C2E3E" stroke-width="0.5" stroke-miterlimit="10"/>
<path d="M163.942 244.432H166.784C167.377 244.432 167.969 244.905 167.969 245.615V248.454C167.969 249.046 167.495 249.638 166.784 249.638H163.942C163.349 249.638 162.757 249.164 162.757 248.454V245.615C162.757 244.905 163.231 244.432 163.942 244.432Z" fill="white" stroke="#2C2E3E" stroke-width="0.5" stroke-miterlimit="10"/>
<path d="M156.716 244.432H159.559C160.151 244.432 160.743 244.905 160.743 245.615V248.454C160.743 249.046 160.27 249.638 159.559 249.638H156.716C156.124 249.638 155.532 249.164 155.532 248.454V245.615C155.532 244.905 156.124 244.432 156.716 244.432Z" fill="white" stroke="#2C2E3E" stroke-width="0.5" stroke-miterlimit="10"/>
<path d="M149.609 244.432H152.452C153.044 244.432 153.636 244.905 153.636 245.615V248.454C153.636 249.046 153.163 249.638 152.452 249.638H149.609C149.017 249.638 148.425 249.164 148.425 248.454V245.615C148.425 244.905 148.899 244.432 149.609 244.432Z" fill="white" stroke="#2C2E3E" stroke-width="0.5" stroke-miterlimit="10"/>
<path d="M290.445 307.258H125.327C125.327 307.258 123.787 307.494 124.498 305.601L142.147 264.901C142.147 264.901 143.45 261.351 148.306 261.351H268.887C268.887 261.351 271.967 261.351 273.27 263.836L291.866 304.773C291.866 304.773 292.814 307.258 290.445 307.258Z" stroke="#5A5F64" stroke-width="0.5" stroke-miterlimit="10"/>
<path d="M285.352 57.1383C284.878 54.4171 276.468 51.4592 268.058 48.1463C259.648 44.8335 241.999 41.4023 241.999 41.4023C241.999 41.4023 193.317 38.6811 182.183 41.4023C171.048 44.1236 148.78 55.9552 145.345 58.2032C141.91 60.4512 141.791 61.9893 140.133 71.2179C138.475 80.4465 135.395 146.703 135.395 146.703L149.017 183.026L245.908 139.959L269.361 116.06L269.598 135.227L292.695 130.612C292.814 130.494 285.825 59.8596 285.352 57.1383ZM163.941 168.71L158.256 141.261L160.506 116.415C160.506 116.415 164.297 127.536 168.916 131.914L163.941 168.71Z" fill="white"/>
<path d="M269.006 137.237L253.963 170.721C253.963 170.721 262.846 176.045 265.334 176.873C267.821 177.82 273.033 178.529 273.033 178.529L293.406 140.787V137.237L291.037 112.154L269.124 131.44L269.006 137.237Z" fill="white"/>
<path d="M165.955 182.316C165.955 182.316 163.823 180.541 163.823 176.755C163.823 166.106 166.31 143.981 168.443 135.108C168.443 135.108 169.509 132.623 168.443 131.085C167.376 129.665 159.559 116.65 158.019 108.605C156.479 100.559 178.511 100.914 178.511 100.914L269.361 109.552V117.005L259.056 134.753C259.056 134.753 258.701 150.016 259.53 156.76L253.963 170.484L258.819 173.442L250.883 182.316H165.955Z" fill="white"/>
<path d="M148.069 180.305C148.069 180.305 151.267 188.587 152.097 191.19C152.926 193.793 157.545 208.7 157.545 208.7C157.545 208.7 158.848 211.658 158.73 215.09C158.611 218.521 156.598 238.279 156.598 240.172C156.598 242.066 157.545 243.959 158.611 243.249C159.677 242.539 162.757 227.986 162.757 227.986L162.046 243.959C162.046 243.959 162.165 249.638 166.666 250.821C166.666 250.821 167.021 255.672 171.285 253.424C171.285 253.424 171.404 241.001 171.404 239.463C171.522 237.924 172.47 228.459 172.47 228.459C172.47 228.459 174.839 245.497 175.549 247.508C176.26 249.519 176.971 251.649 178.155 251.294C179.34 250.821 179.458 247.626 179.458 243.604C179.458 239.581 178.984 220.887 178.984 220.887L182.538 230.826C182.538 230.826 183.841 235.322 185.973 234.967C188.105 234.612 185.973 223.963 185.973 223.963C185.973 223.963 183.841 212.013 183.604 211.54C183.367 211.067 174.128 199.472 174.128 199.472C174.128 199.472 169.745 194.266 168.442 190.598C167.14 186.812 164.889 174.625 164.889 174.625L148.069 180.305Z" fill="white"/>
<path d="M161.691 95.2361C161.691 95.2361 159.44 137.002 158.256 141.261C158.256 141.261 164.534 167.882 165.363 179.595C165.363 179.595 157.071 185.866 151.03 188.232C151.03 188.232 136.106 151.081 135.277 146.703C134.448 142.444 138.712 68.8517 141.555 61.9893C144.397 55.127 175.313 43.6504 175.313 43.6504" stroke="#2C2E3E" stroke-width="0.5" stroke-miterlimit="10"/>
<path d="M165.481 179.595C165.481 179.595 166.903 189.06 170.456 194.503C174.01 199.945 183.012 210.239 183.604 211.54C184.196 212.841 186.091 222.898 186.447 227.158C186.802 231.417 187.157 235.913 185.144 234.848C183.13 233.665 179.577 223.017 178.984 219.94C178.984 219.94 179.932 246.443 179.34 249.401C178.748 252.359 176.734 252.004 175.549 247.508C174.483 243.012 172.588 229.997 172.351 227.158" stroke="#2C2E3E" stroke-width="0.5" stroke-miterlimit="10"/>
<path d="M153.281 195.331L151.149 188.232" stroke="#2C2E3E" stroke-width="0.5" stroke-miterlimit="10"/>
<path d="M169.035 191.899C169.035 191.899 168.087 192.846 165.481 193.556C162.875 194.266 161.099 193.438 157.782 193.556C152.807 193.792 152.097 198.17 152.097 198.17C152.097 198.17 151.504 202.311 154.229 204.796C156.953 207.28 161.217 206.097 162.875 204.796C166.547 201.72 167.258 197.697 171.996 196.632" stroke="#2C2E3E" stroke-width="0.5" stroke-miterlimit="10"/>
<path d="M158.256 204.678C161.003 204.678 163.231 202.453 163.231 199.709C163.231 196.964 161.003 194.739 158.256 194.739C155.508 194.739 153.281 196.964 153.281 199.709C153.281 202.453 155.508 204.678 158.256 204.678Z" stroke="#2C2E3E" stroke-width="0.5" stroke-miterlimit="10"/>
<path d="M253.015 177.347C253.015 177.347 248.514 189.533 246.382 190.835C244.368 192.136 237.38 198.762 236.788 199.353C236.195 199.945 231.931 203.849 229.799 209.647C227.667 215.444 226.601 220.059 226.601 220.059C226.601 220.059 230.036 222.188 232.05 217.692C234.063 213.196 237.972 210.238 237.972 210.238C237.972 210.238 239.393 215.563 239.157 219.349C238.92 223.135 237.854 228.341 237.143 231.417C236.432 234.493 234.3 240.172 235.84 240.882C237.38 241.474 239.749 238.634 241.526 234.848C244.131 229.287 245.671 224.081 245.671 224.081L244.724 233.428C244.724 233.428 242.947 241.592 243.421 242.657C243.895 243.604 245.434 245.142 246.974 243.367C246.974 243.367 247.922 242.894 248.632 242.42C249.343 242.065 251.475 239.936 252.66 235.913C253.844 232.009 255.621 222.307 255.621 222.307L256.332 233.428C256.332 233.428 256.213 235.321 257.753 235.203C259.293 235.085 259.53 231.18 259.53 231.18L262.254 196.514L266.518 187.167L271.967 176.992L255.739 170.129L253.015 177.347Z" fill="white"/>
<path d="M255.147 171.431C255.147 171.431 249.817 186.575 246.382 190.834C242.947 195.094 236.432 197.933 231.931 205.506C227.549 213.078 226.601 220.058 226.601 220.058C226.601 220.058 230.036 222.188 232.05 217.692C234.063 213.196 237.972 210.238 237.972 210.238C237.972 210.238 239.867 215.681 238.92 223.135C237.972 230.589 234.774 238.516 235.129 240.054C235.485 241.592 238.091 241.237 240.341 237.451C242.828 233.192 245.671 225.501 246.027 218.994" stroke="#2C2E3E" stroke-width="0.5" stroke-miterlimit="10"/>
<path d="M247.448 242.539C247.448 242.539 249.58 242.894 250.765 239.936C251.949 236.978 254.792 229.169 255.858 219.704C255.858 219.704 255.976 234.257 256.687 234.849C257.398 235.44 259.056 235.913 259.53 231.181C259.885 226.448 261.662 199.354 262.254 196.514C262.846 193.556 271.375 178.53 271.375 178.53" stroke="#2C2E3E" stroke-width="0.5" stroke-miterlimit="10"/>
<path d="M269.716 99.732C269.716 99.732 269.124 135.227 269.124 137.238C269.124 137.238 261.662 150.371 254.081 170.721C254.081 170.721 266.518 179.24 273.151 178.53C273.151 178.53 292.577 144.337 293.525 140.788C294.472 137.356 286.536 61.0427 285.352 57.1383C284.167 53.2338 261.188 45.6616 261.188 45.6616" stroke="#2C2E3E" stroke-width="0.5" stroke-miterlimit="10"/>
<path d="M175.431 49.9209C175.431 49.9209 172.47 53.9436 174.01 63.054C175.668 72.2826 183.959 94.4077 199.476 109.434C214.993 124.46 231.576 100.56 231.576 100.56" stroke="#2C2E3E" stroke-width="0.5" stroke-miterlimit="10"/>
<path d="M184.078 71.2173C184.078 71.2173 194.975 101.033 210.61 101.033C223.047 101.033 238.801 86.5983 239.157 84.3503" stroke="#2C2E3E" stroke-width="0.5" stroke-miterlimit="10"/>
<path d="M184.078 71.2175C184.078 71.2175 175.786 61.5156 174.839 45.6613C173.891 29.9253 181.354 9.57496 192.843 5.07896C204.333 0.582957 226.009 -3.32147 237.972 6.49875C249.935 16.319 246.856 23.5362 257.753 28.7421C268.532 33.948 257.516 48.0276 260.833 55.8365C264.149 63.527 274.928 71.5725 266.755 89.0832C258.582 106.594 257.042 106.002 255.503 119.017C253.963 132.032 247.685 136.646 239.275 134.043C239.275 134.043 241.289 123.986 235.366 115.823C229.444 107.54 233.353 90.503 233.353 90.503C233.353 90.503 239.867 84.8238 239.986 82.9308C240.104 81.0377 239.986 74.767 231.813 71.0992C223.64 67.4314 225.18 60.2141 216.888 60.4508C208.478 60.6874 198.055 56.9013 194.975 51.8137C194.857 51.932 186.21 56.6647 184.078 71.2175Z" fill="#2C2E3E"/>
<path d="M164.415 171.432C163.349 163.268 169.035 131.914 169.035 131.914C169.035 131.914 160.27 120.319 160.625 114.403" stroke="#2C2E3E" stroke-width="0.5" stroke-miterlimit="10"/>
<path d="M169.035 131.914C169.035 131.914 180.761 138.066 190.356 138.303" stroke="#2C2E3E" stroke-width="0.5" stroke-miterlimit="10"/>
<path d="M260.004 155.932C260.004 155.932 258.819 148.596 258.701 142.917C258.582 137.119 259.056 134.871 259.056 134.871C259.056 134.871 262.965 127.418 269.479 115.941" stroke="#2C2E3E" stroke-width="0.5" stroke-miterlimit="10"/>
<path d="M166.547 250.229C166.547 250.229 161.691 250.111 161.928 244.077C162.165 238.042 162.994 228.932 162.639 228.104C162.283 227.276 159.677 242.065 158.493 243.367C157.427 244.668 156.479 242.065 156.479 242.065C156.479 242.065 159.44 215.444 158.374 211.658C157.308 207.872 156.716 206.452 156.716 206.452" stroke="#2C2E3E" stroke-width="0.5" stroke-miterlimit="10"/>
<path d="M171.996 230.589C171.996 230.589 170.693 246.68 171.285 253.543C171.285 253.543 167.14 256.382 166.666 250.23C166.192 244.077 166.074 232.837 166.666 229.879" stroke="#2C2E3E" stroke-width="0.5" stroke-miterlimit="10"/>
<path d="M245.671 222.544C245.671 222.544 244.487 236.505 243.539 240.764C242.592 245.024 245.908 245.024 247.448 242.539C248.869 240.054 251.949 226.448 252.067 220.414" stroke="#2C2E3E" stroke-width="0.5" stroke-miterlimit="10"/>
<path d="M365.779 186.812L420.028 166.58C421.805 165.87 422.753 163.858 422.042 162.084L393.377 85.2968C392.667 83.522 390.653 82.5755 388.876 83.2854L334.627 103.517C332.85 104.227 331.902 106.239 332.613 108.013L361.278 184.8C361.988 186.575 363.884 187.522 365.779 186.812Z" fill="white" stroke="#2C2E3E" stroke-width="0.5" stroke-miterlimit="10"/>
<path d="M388.047 99.377L351.328 113.22" stroke="#2C2E3E" stroke-width="0.5" stroke-miterlimit="10"/>
<path d="M365.305 121.856L355.947 125.406" stroke="#2C2E3E" stroke-width="0.5" stroke-miterlimit="10"/>
<path d="M392.548 111.563L386.981 113.693" stroke="#2C2E3E" stroke-width="0.5" stroke-miterlimit="10"/>
<path d="M385.204 114.403L367.674 120.911" stroke="#2C2E3E" stroke-width="0.5" stroke-miterlimit="10"/>
<path d="M390.298 105.529L353.697 119.254" stroke="#2C2E3E" stroke-width="0.5" stroke-miterlimit="10"/>
<path d="M379.4 123.395L358.198 131.44" stroke="#2C2E3E" stroke-width="0.5" stroke-miterlimit="10"/>
<path d="M394.917 117.598L381.296 122.804" stroke="#2C2E3E" stroke-width="0.5" stroke-miterlimit="10"/>
<path d="M368.977 134.28L360.448 137.474" stroke="#2C2E3E" stroke-width="0.5" stroke-miterlimit="10"/>
<path d="M399.892 131.558L363.291 145.401" stroke="#2C2E3E" stroke-width="0.5" stroke-miterlimit="10"/>
<path d="M377.268 154.038L367.911 157.469" stroke="#2C2E3E" stroke-width="0.5" stroke-miterlimit="10"/>
<path d="M404.511 143.745L398.944 145.875" stroke="#2C2E3E" stroke-width="0.5" stroke-miterlimit="10"/>
<path d="M397.049 146.466L379.637 153.092" stroke="#2C2E3E" stroke-width="0.5" stroke-miterlimit="10"/>
<path d="M402.261 137.711L365.542 151.436" stroke="#2C2E3E" stroke-width="0.5" stroke-miterlimit="10"/>
<path d="M391.364 155.577L370.161 163.622" stroke="#2C2E3E" stroke-width="0.5" stroke-miterlimit="10"/>
<path d="M406.762 149.779L393.14 154.985" stroke="#2C2E3E" stroke-width="0.5" stroke-miterlimit="10"/>
<path d="M380.94 166.461L372.412 169.656" stroke="#2C2E3E" stroke-width="0.5" stroke-miterlimit="10"/>
<path d="M409.131 155.813L383.428 165.515" stroke="#2C2E3E" stroke-width="0.5" stroke-miterlimit="10"/>
<path d="M333.442 112.273L334.864 111.326L335.456 112.746L334.153 113.692L333.797 114.402L334.271 114.757L334.864 114.639L335.337 115.94L333.679 116.059L332.613 115.704L332.139 114.639L332.376 113.456L333.442 112.273Z" fill="white"/>
<path d="M336.522 110.261C336.522 110.025 336.403 109.906 336.403 109.67C336.403 108.487 337.351 107.54 338.535 107.54C339.72 107.54 340.667 108.487 340.667 109.67C340.667 110.853 339.72 111.799 338.535 111.799C338.062 111.799 337.706 111.681 337.351 111.444" fill="white"/>
<path d="M336.522 110.261C336.522 110.025 336.403 109.906 336.403 109.67C336.403 108.487 337.351 107.54 338.535 107.54C339.72 107.54 340.667 108.487 340.667 109.67C340.667 110.853 339.72 111.799 338.535 111.799C338.062 111.799 337.706 111.681 337.351 111.444" stroke="#2C2E3E" stroke-width="0.5" stroke-miterlimit="10"/>
<path d="M336.64 108.841C336.64 108.841 337.351 109.788 336.285 110.498C335.219 111.208 332.258 112.509 332.139 114.047C332.021 115.349 332.731 116.532 335.456 115.94" stroke="#2C2E3E" stroke-width="0.5" stroke-miterlimit="10"/>
<path d="M334.982 114.639C334.982 114.639 334.034 114.994 333.798 114.402C333.561 113.692 335.693 112.627 336.166 112.273C337.469 111.444 338.18 111.089 338.299 109.788C338.417 108.605 337.825 107.658 337.825 107.658" stroke="#2C2E3E" stroke-width="0.5" stroke-miterlimit="10"/>
<path d="M336.522 120.674L337.943 119.727L338.535 121.147L337.232 122.093L336.877 122.803L337.351 123.158L337.943 123.04L338.417 124.341L336.759 124.46L335.693 123.986L335.219 123.04L335.456 121.738L336.522 120.674Z" fill="white"/>
<path d="M339.601 118.662C339.601 118.425 339.483 118.307 339.483 118.07C339.483 116.887 340.431 115.94 341.615 115.94C342.8 115.94 343.747 116.887 343.747 118.07C343.747 119.253 342.8 120.2 341.615 120.2C341.141 120.2 340.786 120.081 340.431 119.845" fill="white"/>
<path d="M339.601 118.662C339.601 118.425 339.483 118.307 339.483 118.07C339.483 116.887 340.431 115.94 341.615 115.94C342.8 115.94 343.747 116.887 343.747 118.07C343.747 119.253 342.8 120.2 341.615 120.2C341.141 120.2 340.786 120.081 340.431 119.845" stroke="#2C2E3E" stroke-width="0.5" stroke-miterlimit="10"/>
<path d="M339.72 117.242C339.72 117.242 340.431 118.189 339.365 118.899C338.298 119.609 335.337 120.91 335.219 122.448C335.1 123.75 335.811 124.933 338.535 124.341" stroke="#2C2E3E" stroke-width="0.5" stroke-miterlimit="10"/>
<path d="M338.062 123.04C338.062 123.04 337.114 123.395 336.877 122.803C336.64 122.093 338.772 121.028 339.246 120.673C340.549 119.845 341.26 119.49 341.378 118.189C341.497 117.006 340.904 116.059 340.904 116.059" stroke="#2C2E3E" stroke-width="0.5" stroke-miterlimit="10"/>
<path d="M339.601 129.074L341.023 128.128L341.615 129.548L340.312 130.494L339.957 131.204L340.431 131.559L341.141 131.441L341.615 132.742L339.838 132.861L338.772 132.387L338.298 131.441L338.535 130.139L339.601 129.074Z" fill="white"/>
<path d="M342.681 127.063C342.681 126.826 342.563 126.708 342.563 126.471C342.563 125.288 343.51 124.341 344.695 124.341C345.879 124.341 346.827 125.288 346.827 126.471C346.827 127.654 345.879 128.601 344.695 128.601C344.221 128.601 343.866 128.482 343.51 128.246" fill="white"/>
<path d="M342.681 127.063C342.681 126.826 342.563 126.708 342.563 126.471C342.563 125.288 343.51 124.341 344.695 124.341C345.879 124.341 346.827 125.288 346.827 126.471C346.827 127.654 345.879 128.601 344.695 128.601C344.221 128.601 343.866 128.482 343.51 128.246" stroke="#2C2E3E" stroke-width="0.5" stroke-miterlimit="10"/>
<path d="M342.8 125.643C342.8 125.643 343.51 126.59 342.444 127.299C341.378 128.009 338.417 129.311 338.298 130.849C338.18 132.15 338.891 133.334 341.615 132.742" stroke="#2C2E3E" stroke-width="0.5" stroke-miterlimit="10"/>
<path d="M341.26 131.322C341.26 131.322 340.312 131.677 340.075 131.085C339.838 130.375 341.97 129.311 342.444 128.956C343.747 128.127 344.458 127.772 344.576 126.471C344.695 125.288 344.102 124.341 344.102 124.341" stroke="#2C2E3E" stroke-width="0.5" stroke-miterlimit="10"/>
<path d="M342.681 137.474L344.221 136.528L344.813 137.829L343.392 138.776L343.155 139.486L343.629 139.841H344.221L344.695 141.024L343.036 141.26L341.97 140.787L341.378 139.841L341.733 138.539L342.681 137.474Z" fill="white"/>
<path d="M345.879 135.462C345.879 135.226 345.761 135.108 345.761 134.871C345.761 133.688 346.708 132.741 347.893 132.741C349.077 132.741 350.025 133.688 350.025 134.871C350.025 136.054 349.077 137.001 347.893 137.001C347.419 137.001 347.064 136.882 346.708 136.646" fill="white"/>
<path d="M345.879 135.462C345.879 135.226 345.761 135.108 345.761 134.871C345.761 133.688 346.708 132.741 347.893 132.741C349.077 132.741 350.025 133.688 350.025 134.871C350.025 136.054 349.077 137.001 347.893 137.001C347.419 137.001 347.064 136.882 346.708 136.646" stroke="#2C2E3E" stroke-width="0.5" stroke-miterlimit="10"/>
<path d="M345.998 133.924C345.998 133.924 346.708 134.871 345.642 135.581C344.576 136.291 341.615 137.592 341.496 139.13C341.378 140.432 342.089 141.615 344.813 141.023" stroke="#2C2E3E" stroke-width="0.5" stroke-miterlimit="10"/>
<path d="M344.339 139.722C344.339 139.722 343.392 140.077 343.155 139.485C342.918 138.775 345.05 137.71 345.524 137.356C346.827 136.527 347.537 136.172 347.656 134.871C347.774 133.688 347.182 132.741 347.182 132.741" stroke="#2C2E3E" stroke-width="0.5" stroke-miterlimit="10"/>
<path d="M345.879 145.756L347.301 144.81L347.893 146.111L346.59 147.058L346.235 147.767L346.708 148.122H347.301L347.774 149.306L346.116 149.542L345.05 149.069L344.576 148.122L344.813 146.821L345.879 145.756Z" fill="white"/>
<path d="M348.959 143.744C348.959 143.508 348.84 143.389 348.84 143.153C348.84 141.969 349.788 141.023 350.973 141.023C352.157 141.023 353.105 141.969 353.105 143.153C353.105 144.336 352.157 145.282 350.973 145.282C350.499 145.282 350.143 145.164 349.788 144.927" fill="white"/>
<path d="M348.959 143.744C348.959 143.508 348.84 143.389 348.84 143.153C348.84 141.969 349.788 141.023 350.973 141.023C352.157 141.023 353.105 141.969 353.105 143.153C353.105 144.336 352.157 145.282 350.973 145.282C350.499 145.282 350.143 145.164 349.788 144.927" stroke="#2C2E3E" stroke-width="0.5" stroke-miterlimit="10"/>
<path d="M349.077 142.324C349.077 142.324 349.788 143.271 348.722 143.981C347.656 144.691 344.695 145.992 344.576 147.53C344.458 148.832 345.169 150.015 347.893 149.423" stroke="#2C2E3E" stroke-width="0.5" stroke-miterlimit="10"/>
<path d="M347.419 148.004C347.419 148.004 346.472 148.359 346.235 147.767C345.998 147.057 348.13 145.992 348.604 145.637C349.907 144.809 350.617 144.454 350.736 143.153C350.854 141.969 350.262 141.023 350.262 141.023" stroke="#2C2E3E" stroke-width="0.5" stroke-miterlimit="10"/>
<path d="M348.959 154.158L350.38 153.093L350.973 154.513L349.67 155.459L349.433 156.169L349.788 156.524L350.499 156.406L350.973 157.707L349.196 157.944L348.248 157.47L347.656 156.406L348.011 155.222L348.959 154.158Z" fill="white"/>
<path d="M352.157 152.027C352.157 151.791 352.039 151.672 352.039 151.436C352.039 150.253 352.986 149.306 354.171 149.306C355.355 149.306 356.303 150.253 356.303 151.436C356.303 152.619 355.355 153.566 354.171 153.566C353.697 153.566 353.342 153.447 352.986 153.211" fill="white"/>
<path d="M352.157 152.027C352.157 151.791 352.039 151.672 352.039 151.436C352.039 150.253 352.986 149.306 354.171 149.306C355.355 149.306 356.303 150.253 356.303 151.436C356.303 152.619 355.355 153.566 354.171 153.566C353.697 153.566 353.342 153.447 352.986 153.211" stroke="#2C2E3E" stroke-width="0.5" stroke-miterlimit="10"/>
<path d="M352.275 150.607C352.275 150.607 352.986 151.554 351.92 152.264C350.854 152.974 347.893 154.275 347.774 155.813C347.656 157.115 348.367 158.298 351.091 157.706" stroke="#2C2E3E" stroke-width="0.5" stroke-miterlimit="10"/>
<path d="M350.617 156.405C350.617 156.405 349.67 156.76 349.433 156.168C349.196 155.458 351.328 154.394 351.802 154.039C353.105 153.21 353.815 152.855 353.934 151.554C354.052 150.371 353.46 149.424 353.46 149.424" stroke="#2C2E3E" stroke-width="0.5" stroke-miterlimit="10"/>
<path d="M352.039 162.439L353.578 161.492L354.052 162.912L352.749 163.859L352.512 164.568L352.868 164.923L353.578 164.805L354.052 166.107L352.275 166.225L351.328 165.752L350.736 164.805L351.091 163.504L352.039 162.439Z" fill="white"/>
<path d="M355.237 160.427C355.237 160.191 355.118 160.072 355.118 159.836C355.118 158.653 356.066 157.706 357.25 157.706C358.435 157.706 359.382 158.653 359.382 159.836C359.382 161.019 358.435 161.965 357.25 161.965C356.777 161.965 356.421 161.847 356.066 161.61" fill="white"/>
<path d="M355.237 160.427C355.237 160.191 355.118 160.072 355.118 159.836C355.118 158.653 356.066 157.706 357.25 157.706C358.435 157.706 359.382 158.653 359.382 159.836C359.382 161.019 358.435 161.965 357.25 161.965C356.777 161.965 356.421 161.847 356.066 161.61" stroke="#2C2E3E" stroke-width="0.5" stroke-miterlimit="10"/>
<path d="M355.355 159.008C355.355 159.008 356.066 159.954 355 160.664C353.934 161.374 350.973 162.676 350.854 164.214C350.736 165.515 351.446 166.698 354.171 166.107" stroke="#2C2E3E" stroke-width="0.5" stroke-miterlimit="10"/>
<path d="M353.697 164.805C353.697 164.805 352.749 165.16 352.512 164.569C352.275 163.859 354.408 162.794 354.881 162.439C356.184 161.611 356.895 161.256 357.013 159.954C357.132 158.771 356.54 157.825 356.54 157.825" stroke="#2C2E3E" stroke-width="0.5" stroke-miterlimit="10"/>
<path d="M355.237 170.839L356.658 169.893L357.25 171.312L355.947 172.141L355.592 172.85L356.066 173.205H356.776L357.25 174.389L355.474 174.625L354.408 174.152L353.934 173.205L354.171 171.904L355.237 170.839Z" fill="white"/>
<path d="M358.316 168.828C358.316 168.591 358.198 168.473 358.198 168.236C358.198 167.053 359.145 166.106 360.33 166.106C361.514 166.106 362.462 167.053 362.462 168.236C362.462 169.419 361.514 170.366 360.33 170.366C359.856 170.366 359.501 170.248 359.145 170.011" fill="white"/>
<path d="M358.316 168.828C358.316 168.591 358.198 168.473 358.198 168.236C358.198 167.053 359.145 166.106 360.33 166.106C361.514 166.106 362.462 167.053 362.462 168.236C362.462 169.419 361.514 170.366 360.33 170.366C359.856 170.366 359.501 170.248 359.145 170.011" stroke="#2C2E3E" stroke-width="0.5" stroke-miterlimit="10"/>
<path d="M358.435 167.408C358.435 167.408 359.145 168.355 358.079 169.065C357.013 169.775 354.052 171.076 353.934 172.614C353.815 173.916 354.526 175.099 357.25 174.507" stroke="#2C2E3E" stroke-width="0.5" stroke-miterlimit="10"/>
<path d="M356.776 173.087C356.776 173.087 355.829 173.442 355.592 172.85C355.355 172.141 357.487 171.076 357.961 170.721C359.264 169.893 359.975 169.538 360.093 168.236C360.212 167.053 359.619 166.106 359.619 166.106" stroke="#2C2E3E" stroke-width="0.5" stroke-miterlimit="10"/>
<path d="M358.316 179.241L359.738 178.176L360.33 179.596L359.027 180.542L358.79 181.252L359.145 181.607L359.856 181.489L360.33 182.79L358.553 183.027L357.487 182.553L357.013 181.489L357.25 180.305L358.316 179.241Z" fill="white"/>
<path d="M361.514 177.11C361.514 176.874 361.396 176.755 361.396 176.519C361.396 175.336 362.344 174.389 363.528 174.389C364.713 174.389 365.66 175.336 365.66 176.519C365.66 177.702 364.713 178.649 363.528 178.649C363.054 178.649 362.699 178.53 362.344 178.294" fill="white"/>
<path d="M361.514 177.11C361.514 176.874 361.396 176.755 361.396 176.519C361.396 175.336 362.344 174.389 363.528 174.389C364.713 174.389 365.66 175.336 365.66 176.519C365.66 177.702 364.713 178.649 363.528 178.649C363.054 178.649 362.699 178.53 362.344 178.294" stroke="#2C2E3E" stroke-width="0.5" stroke-miterlimit="10"/>
<path d="M361.515 175.691C361.515 175.691 362.225 176.638 361.159 177.348C360.093 178.058 357.132 179.359 357.014 180.897C356.895 182.199 357.606 183.382 360.33 182.79" stroke="#2C2E3E" stroke-width="0.5" stroke-miterlimit="10"/>
<path d="M359.975 181.489C359.975 181.489 359.027 181.844 358.79 181.252C358.553 180.542 360.685 179.478 361.159 179.123C362.462 178.294 363.173 177.939 363.291 176.638C363.41 175.455 362.817 174.508 362.817 174.508" stroke="#2C2E3E" stroke-width="0.5" stroke-miterlimit="10"/>
<path d="M434.005 193.556C452.78 193.556 468 178.353 468 159.6C468 140.846 452.78 125.643 434.005 125.643C415.23 125.643 400.01 140.846 400.01 159.6C400.01 178.353 415.23 193.556 434.005 193.556Z" fill="white" stroke="#2C2E3E" stroke-width="0.5" stroke-miterlimit="10"/>
<path d="M413.395 161.966H408.657C407.354 161.966 406.288 160.901 406.288 159.6C406.288 158.298 407.354 157.233 408.657 157.233H413.395" fill="white"/>
<path d="M413.395 161.966H408.657C407.354 161.966 406.288 160.901 406.288 159.6C406.288 158.298 407.354 157.233 408.657 157.233H413.395" stroke="#2C2E3E" stroke-width="0.5" stroke-miterlimit="10"/>
<path d="M434.005 180.187C445.388 180.187 454.615 170.97 454.615 159.6C454.615 148.23 445.388 139.013 434.005 139.013C422.623 139.013 413.395 148.23 413.395 159.6C413.395 170.97 422.623 180.187 434.005 180.187Z" fill="white" stroke="#2C2E3E" stroke-width="0.5" stroke-miterlimit="10"/>
<path d="M434.005 175.809C442.967 175.809 450.233 168.552 450.233 159.6C450.233 150.648 442.967 143.391 434.005 143.391C425.043 143.391 417.778 150.648 417.778 159.6C417.778 168.552 425.043 175.809 434.005 175.809Z" fill="white" stroke="#2C2E3E" stroke-width="0.5" stroke-miterlimit="10"/>
<path d="M434.005 174.508C442.248 174.508 448.93 167.834 448.93 159.6C448.93 151.367 442.248 144.692 434.005 144.692C425.762 144.692 419.081 151.367 419.081 159.6C419.081 167.834 425.762 174.508 434.005 174.508Z" fill="#2C2E3E"/>
<path d="M352.986 410.31L321.834 401.318C320.057 400.845 319.11 398.952 319.583 397.177L338.298 332.814C338.772 331.039 340.667 330.092 342.444 330.566L373.596 339.558C375.373 340.031 376.321 341.924 375.847 343.699L357.132 408.062C356.54 409.837 354.763 410.784 352.986 410.31Z" fill="white" stroke="#2C2E3E" stroke-width="0.5" stroke-miterlimit="10"/>
<path d="M354.881 401.201L325.032 392.564C323.729 392.209 323.018 390.789 323.374 389.487L339.601 333.761C339.957 332.459 341.378 331.749 342.681 332.104L372.53 340.741C373.833 341.096 374.544 342.516 374.188 343.818L357.961 399.544C357.606 400.846 356.184 401.556 354.881 401.201Z" fill="white" stroke="#2C2E3E" stroke-width="0.4966" stroke-miterlimit="10"/>
<path d="M343.51 359.08L339.957 358.015C339.128 357.779 338.772 356.95 338.891 356.24L339.957 352.691C340.194 351.863 341.023 351.508 341.733 351.626L345.287 352.691C346.116 352.928 346.471 353.756 346.353 354.466L345.287 358.015C345.05 358.843 344.221 359.317 343.51 359.08Z" stroke="#2C2E3E" stroke-width="0.5" stroke-miterlimit="10"/>
<path d="M363.291 355.057L342.563 349.023C341.733 348.786 341.378 347.958 341.497 347.248L342.563 343.699C342.799 342.871 343.629 342.516 344.339 342.634L365.068 348.668C365.897 348.905 366.252 349.733 366.134 350.443L365.068 353.992C364.831 354.821 364.002 355.294 363.291 355.057Z" stroke="#2C2E3E" stroke-width="0.5" stroke-miterlimit="10"/>
<path d="M352.038 361.564L348.485 360.5C347.656 360.263 347.301 359.435 347.419 358.725L348.485 355.175C348.722 354.347 349.551 353.992 350.262 354.111L353.815 355.175C354.644 355.412 355 356.24 354.881 356.95L353.815 360.5C353.697 361.328 352.868 361.801 352.038 361.564Z" stroke="#2C2E3E" stroke-width="0.5" stroke-miterlimit="10"/>
<path d="M360.567 364.049L357.013 362.984C356.184 362.747 355.829 361.919 355.947 361.209L357.013 357.66C357.25 356.832 358.079 356.477 358.79 356.595L362.344 357.66C363.173 357.896 363.528 358.725 363.41 359.435L362.344 362.984C362.225 363.812 361.396 364.285 360.567 364.049Z" stroke="#2C2E3E" stroke-width="0.5" stroke-miterlimit="10"/>
<path d="M340.904 367.954L337.351 366.889C336.522 366.652 336.166 365.824 336.285 365.114L337.351 361.565C337.588 360.736 338.417 360.381 339.128 360.5L342.681 361.565C343.51 361.801 343.865 362.629 343.747 363.339L342.681 366.889C342.563 367.717 341.733 368.19 340.904 367.954Z" stroke="#2C2E3E" stroke-width="0.5" stroke-miterlimit="10"/>
<path d="M349.433 370.438L345.879 369.373C345.05 369.136 344.695 368.308 344.813 367.598L345.879 364.049C346.116 363.221 346.945 362.866 347.656 362.984L351.209 364.049C352.039 364.286 352.394 365.114 352.275 365.824L351.209 369.373C351.091 370.201 350.262 370.675 349.433 370.438Z" stroke="#2C2E3E" stroke-width="0.5" stroke-miterlimit="10"/>
<path d="M358.079 372.922L354.526 371.858C353.697 371.621 353.341 370.793 353.46 370.083L354.526 366.533C354.763 365.705 355.592 365.35 356.303 365.468L359.856 366.533C360.685 366.77 361.041 367.598 360.922 368.308L359.856 371.858C359.619 372.686 358.79 373.159 358.079 372.922Z" stroke="#2C2E3E" stroke-width="0.5" stroke-miterlimit="10"/>
<path d="M338.298 376.827L334.745 375.762C333.916 375.526 333.56 374.697 333.679 373.988L334.745 370.438C334.982 369.61 335.811 369.255 336.522 369.373L340.075 370.438C340.904 370.675 341.26 371.503 341.141 372.213L340.075 375.762C339.957 376.591 339.128 376.945 338.298 376.827Z" stroke="#2C2E3E" stroke-width="0.5" stroke-miterlimit="10"/>
<path d="M346.945 379.312L343.392 378.247C342.563 378.01 342.207 377.182 342.326 376.472L343.392 372.922C343.629 372.094 344.458 371.739 345.169 371.858L348.722 372.922C349.551 373.159 349.906 373.987 349.788 374.697L348.722 378.247C348.485 379.075 347.656 379.43 346.945 379.312Z" stroke="#2C2E3E" stroke-width="0.5" stroke-miterlimit="10"/>
<path d="M335.811 385.583L332.258 384.518C331.428 384.281 331.073 383.453 331.192 382.743L332.258 379.193C332.494 378.365 333.324 378.01 334.034 378.129L337.588 379.193C338.417 379.43 338.772 380.258 338.654 380.968L337.588 384.518C337.351 385.346 336.522 385.819 335.811 385.583Z" stroke="#2C2E3E" stroke-width="0.5" stroke-miterlimit="10"/>
<path d="M344.339 388.067L340.786 387.003C339.957 386.766 339.601 385.938 339.72 385.228L340.786 381.678C341.023 380.85 341.852 380.495 342.563 380.613L346.116 381.678C346.945 381.915 347.301 382.743 347.182 383.453L346.116 387.003C345.998 387.831 345.168 388.304 344.339 388.067Z" stroke="#2C2E3E" stroke-width="0.5" stroke-miterlimit="10"/>
<path d="M355.474 381.796L351.92 380.731C351.091 380.494 350.736 379.666 350.854 378.956L351.92 375.407C352.157 374.579 352.986 374.224 353.697 374.342L357.25 375.407C358.079 375.644 358.435 376.472 358.316 377.182L357.25 380.731C357.132 381.559 356.303 381.914 355.474 381.796Z" stroke="#2C2E3E" stroke-width="0.5" stroke-miterlimit="10"/>
<path d="M338.654 404.395C340.355 404.395 341.733 403.017 341.733 401.318C341.733 399.619 340.355 398.242 338.654 398.242C336.953 398.242 335.574 399.619 335.574 401.318C335.574 403.017 336.953 404.395 338.654 404.395Z" stroke="#2C2E3E" stroke-width="0.5" stroke-miterlimit="10"/>
</svg>
